<?xml version="1.0" standalone="no"?><!DOCTYPE svg PUBLIC "-//W3C//DTD SVG 1.1//EN" "http://www.w3.org/Graphics/SVG/1.1/DTD/svg11.dtd"><svg t="1524203613264" class="icon" style="" viewBox="0 0 1024 1024" version="1.1" xmlns="http://www.w3.org/2000/svg" p-id="4136" xmlns:xlink="http://www.w3.org/1999/xlink" width="200" height="200"><defs><style type="text/css"></style></defs><path d="M643.584 667.529846c-89.718154 107.638154-182.429538 173.449846-322.953846 173.449846-140.603077 0-233.314462-86.724923-221.341539-191.40923 5.986462-68.765538 53.838769-182.429538 260.17477-164.470154 107.677538 8.940308 158.523077 29.892923 248.24123 59.785846 23.906462-41.865846 41.865846-89.718154 56.832-137.570462H269.745231v-38.872615h194.402461V299.716923H227.879385v-44.898461h236.268307V153.166769s2.993231-14.966154 20.952616-14.966154h98.658461V254.818462h251.234462v41.865846h-254.227693v68.765538h206.375385a730.190769 730.190769 0 0 1-83.731692 209.368616c50.806154 17.92 257.181538 80.738462 317.006769 98.697846V150.134154c0-83.731692-68.804923-149.543385-149.543385-149.543385h-720.738461C66.402462 0.590769 0.590769 69.395692 0.590769 150.134154v723.731692c0 83.731692 68.804923 149.543385 149.543385 149.543385h723.731692c83.731692 0 149.543385-68.765538 149.543385-149.543385v-35.84c-50.845538-23.945846-278.134154-122.643692-379.825231-170.535384z" p-id="4137"></path><path d="M141.154462 640.590769c-8.979692 38.872615 14.966154 131.584 164.470153 131.584 89.718154 0 179.475692-56.792615 251.234462-149.504-101.691077-50.845538-185.422769-74.791385-281.127385-74.791384-83.731692 2.993231-125.636923 53.838769-134.57723 92.711384z" p-id="4138"></path></svg>