<?xml version="1.0" standalone="no"?><!DOCTYPE svg PUBLIC "-//W3C//DTD SVG 1.1//EN" "http://www.w3.org/Graphics/SVG/1.1/DTD/svg11.dtd"><svg t="1544687126750" class="icon" style="" viewBox="0 0 1024 1024" version="1.1" xmlns="http://www.w3.org/2000/svg" p-id="7730" xmlns:xlink="http://www.w3.org/1999/xlink" width="200" height="200"><defs><style type="text/css"></style></defs><path d="M130.56 806.4c-12.8 0-25.6-5.12-33.28-17.92C43.52 706.56 15.36 611.84 15.36 512 15.36 238.08 238.08 15.36 514.56 15.36c112.64 0 217.6 35.84 307.2 104.96 17.92 12.8 20.48 38.4 7.68 53.76-12.8 17.92-38.4 20.48-53.76 7.68-74.24-58.88-163.84-89.6-258.56-89.6C281.6 92.16 92.16 281.6 92.16 514.56c0 84.48 23.04 163.84 69.12 232.96 12.8 17.92 7.68 40.96-10.24 53.76-7.68 2.56-15.36 5.12-20.48 5.12z" p-id="7731"></path></svg>