<?xml version="1.0" standalone="no"?><!DOCTYPE svg PUBLIC "-//W3C//DTD SVG 1.1//EN" "http://www.w3.org/Graphics/SVG/1.1/DTD/svg11.dtd"><svg t="1509648784963" class="icon" style="" viewBox="0 0 1188 1024" version="1.1" xmlns="http://www.w3.org/2000/svg" p-id="1882" xmlns:xlink="http://www.w3.org/1999/xlink" width="232.03125" height="200"><defs><style type="text/css"></style></defs><path d="M951.425526 596.43868C923.055682 596.43868 899.949867 572.767146 899.949867 543.392844 899.949867 514.178753 923.054324 490.507219 951.425526 490.507219 979.798086 490.507219 1002.901185 514.178753 1002.901185 543.392844 1002.901185 572.767146 979.798086 596.43868 951.425526 596.43868M686.641207 596.43868C658.268645 596.43868 635.165546 572.767146 635.165546 543.392844 635.165546 514.178753 658.268645 490.507219 686.641207 490.507219 715.011052 490.507219 738.11415 514.178753 738.11415 543.392844 738.112795 572.767146 715.011052 596.43868 686.641207 596.43868M1187.84 671.795618C1187.84 500.408687 1037.877539 360.085203 847.814506 347.987708 838.922121 347.494638 830.012088 347.152112 821.103415 347.152112 618.50471 347.152112 454.350541 492.523698 454.350541 671.795618 454.350541 698.827491 458.152643 725.007194 465.241033 750.022586 504.664259 891.543527 649.019263 996.458461 821.102057 996.458461 879.664749 996.458461 934.926221 984.359585 983.91918 962.705912L1066.246027 1019.949064C1066.246027 1019.949064 1088.189899 1035.554681 1086.047908 1005.506376L1062.783277 915.871107C1139.506741 856.447118 1187.84 769.154279 1187.84 671.795618M259.517573 306.694078C231.131439 306.694078 208.041914 283.039117 208.041914 253.827791 208.041914 224.450726 231.131439 200.780573 259.517573 200.780573 288.050307 200.780573 310.993232 224.452106 310.993232 253.827791 310.993232 283.039117 288.050307 306.694078 259.517573 306.694078M583.689888 200.780573C612.078737 200.780573 635.165546 224.452106 635.165546 253.827791 635.165546 283.039117 612.078737 306.694078 583.689888 306.694078 555.157154 306.694078 532.214229 283.039117 532.214229 253.827791 532.214229 224.450726 555.157154 200.780573 583.689888 200.780573M821.103415 320.12024C829.014393 320.12024 836.763841 320.464146 844.529578 320.808053 814.335373 139.338723 637.808423 0 424.49569 0 190.063033 0 0 168.388456 0 375.856558 0 491.523746 59.063575 594.915271 151.782745 663.912014L120.429315 784.269588C120.429315 784.269588 109.715287 824.219358 150.300455 806.268549L267.265663 725.009957C315.938273 742.303338 368.896223 751.877472 424.494332 751.877472 429.279199 751.877472 433.887603 751.533566 438.510936 751.533566 431.745612 725.845551 428.118614 699.157586 428.118614 671.798381 428.119972 477.918036 604.471818 320.12024 821.103415 320.12024" p-id="1883"></path></svg>