<?xml version="1.0" encoding="UTF-8"?>
<svg width="1024px" height="361px" viewBox="0 0 1024 361" version="1.1" xmlns="http://www.w3.org/2000/svg">
    <title>icon 1024</title>
    <desc>Created with Sketch.</desc>
    <g id="icon-1024" stroke="none" stroke-width="1" fill="white" fill-rule="evenodd">
        <path d="M46,180.120056 C46,104.131356 107.930697,46 188.478598,46 C226.47289,46 264.467183,60.4378531 290.683245,83.2344633 L265.227069,116.289548 C244.710151,97.2923729 216.214431,85.8940678 188.478598,85.8940678 C134.146759,85.8940678 91.5931512,127.30791 91.5931512,180.120056 C91.5931512,233.312147 134.526702,274.725989 188.858541,274.725989 C208.615573,274.725989 231.032205,267.887006 250.029352,256.488701 L250.029352,182.399718 L289.163473,182.399718 L289.163473,280.425141 C262.187525,300.94209 222.293518,315 185.818997,315 C107.170811,315 46,256.108757 46,180.120056 Z M347.294741,202.916667 L347.294741,47.1398305 L392.128007,47.1398305 L392.128007,202.916667 C392.128007,247.75 419.86384,274.725989 463.557277,274.725989 C506.87077,274.725989 533.846718,248.129944 533.846718,202.916667 L533.846718,47.1398305 L578.679984,47.1398305 L578.679984,202.916667 C578.679984,272.446328 534.986547,315 463.177334,315 C391.368121,315 347.294741,272.446328 347.294741,202.916667 Z M637.571137,202.916667 L637.571137,47.1398305 L682.404403,47.1398305 L682.404403,202.916667 C682.404403,247.75 710.140236,274.725989 753.833673,274.725989 C797.147167,274.725989 824.123115,248.129944 824.123115,202.916667 L824.123115,47.1398305 L868.95638,47.1398305 L868.95638,202.916667 C868.95638,272.446328 825.262943,315 753.45373,315 C681.644517,315 637.571137,272.446328 637.571137,202.916667 Z M933.166735,313.100282 L933.166735,47.1398305 L978,47.1398305 L978,313.100282 L933.166735,313.100282 Z" id="GUUI"></path>
    </g>
</svg>